<svg xmlns="http://www.w3.org/2000/svg" viewBox="0 0 100 100" fill="none">
  <circle cx="50" cy="50" r="46" stroke="#1E3A2F" stroke-width="4" stroke-dasharray="8 4" opacity="0.6"/>
  <!-- Hanger and circular swap arrows -->
  <path d="M50 24 C46 24 43 27 43 31 C43 35 48 37 50 40 L28 58 C26 60 27 64 30 64 L70 64 C73 64 74 60 72 58 L50 40 Z" fill="#1E3A2F"/>
  <path d="M50 20 C45 20 41 24 41 28" stroke="#1E3A2F" stroke-width="3" stroke-linecap="round"/>
  <!-- Green leaf symbol for sustainability -->
  <path d="M60 48 C68 46 72 54 68 62 C60 62 58 56 60 48 Z" fill="#8FA89B"/>
  <path d="M60 62 L64 54" stroke="#FAF8F5" stroke-width="1.5" stroke-linecap="round"/>
</svg>
